<?xml version="1.0" encoding="UTF-8"?>
<svg version="1.1" viewBox="0 0 694 101" xmlns="http://www.w3.org/2000/svg">
<title>liveaboard-logo</title>
<desc>Created with Sketch.</desc>
<g fill="none" fill-rule="evenodd">
<g transform="translate(155)" fill="#39464E">
<path d="m0.4 79.2c0.1-0.1 0.1-0.2 0.2-0.3 0.7-2.9 1.8-5.7 2.8-8.5 3.7-10.1 7.6-20.1 11.4-30.1 3.2-8.2 6.3-16.3 9.1-24.6 0.4-1 0.7-2.1 1-3.2 0.1-0.3 0.2-0.5 0.6-0.6 6.6-1.4 13.2-2.7 19.8-4.1 0.6-0.1 1.2-0.3 1.9-0.4 0.1 0.3 0.1 0.7 0.2 1 0.6 2.6 1.4 5.1 2.2 7.6 2.7 8.6 5.7 17 8.7 25.5s5.9 17 8.8 25.5c1.2 3.4 2.3 6.8 3.2 10.3 0.2 0.7 0.3 1.3 0.4 2-0.4 0.1-17.1 0.2-17.8 0.1-0.1-0.6-0.1-1.2-0.2-1.8-0.4-2.6-1-5.2-1.7-7.7-1-3.5-2-7-2.9-10.5-0.1-0.2-0.1-0.4-0.2-0.6h-25.6c0 0.1-0.1 0.2-0.1 0.4-1.5 4.9-3 9.8-4.2 14.8-0.4 1.8-0.8 3.6-0.9 5.5h-0.5-15.6-0.6v-0.3zm34.5-62.2c-0.1 0.4-0.1 0.7-0.2 1.1-0.7 2.6-1.4 5.2-2.3 7.7l-7.2 21.6c-0.1 0.2-0.1 0.4-0.2 0.6h20.1c-0.1-0.3-0.1-0.5-0.2-0.7-2-6.3-4.1-12.6-6.1-19-1-3.2-1.9-6.5-2.8-9.7l-0.3-1.5c-0.3-0.1-0.5-0.1-0.8-0.1z"/>
<path d="m153 81.6c-0.6-0.1-1.2-0.2-1.8-0.2-5.9-0.5-11.1-2.6-15.6-6.4-4.2-3.6-6.8-8.1-8-13.5-0.7-3.1-0.8-6.1-0.7-9.3 0.1-2.9 0.5-5.8 1.4-8.6 1.7-5.6 5-10.1 9.7-13.6 3.8-2.8 8-4.7 12.6-5.4 5.3-0.8 10.6-0.5 15.6 1.5 5.2 2 9.4 5.3 12.4 10 1.8 2.7 2.8 5.8 3.4 9 0.9 5.1 0.8 10.2-0.3 15.3-1.5 6.5-5 11.6-10.3 15.5-3.8 2.8-8 4.6-12.6 5.3-1.2 0.2-2.4 0.3-3.6 0.4-0.2 0-0.3 0.1-0.5 0.1-0.5-0.1-1.1-0.1-1.7-0.1zm-11.6-29.7c0 2.4 0.2 4.2 0.5 6.1 0.7 3.3 1.9 6.3 4 8.8 3 3.7 6.9 5.1 11.6 4.2 2.5-0.5 4.6-1.9 6.2-3.9 2-2.4 3.2-5.1 3.9-8.1 0.8-3.8 0.8-7.7 0-11.5-0.7-3.2-1.9-6.1-4-8.6-2-2.4-4.5-4-7.7-4.3-3.4-0.4-6.4 0.5-9 2.8-1.8 1.7-3.1 3.7-4 6-1.1 2.8-1.5 5.8-1.5 8.5z"/>
<path d="m71.9 79.3v-2.8c0.1-4 0.2-7.9 0.3-11.9 0.1-4.6 0.2-9.2 0.2-13.7 0-6 0.1-12 0-18-0.1-4.8-0.2-9.6-0.4-14.4-0.1-3.3-0.4-6.5-0.6-9.8 0-0.5-0.1-1.1-0.1-1.7l15.3-6.3c-0.4 9.7-0.5 19.3-0.6 28.9 0.4 0.1 0.6 0.1 0.9-0.2 2.5-2.2 5.5-3.4 8.7-4.1 3-0.6 6.1-0.8 9.2-0.4 6.1 0.7 11 3.5 14.6 8.4 2.8 3.8 4.6 8 5.2 12.7 0.9 6.9 0 13.6-3 20-1.5 3.2-3.4 6.1-6 8.6-3.2 3.2-7.1 5.1-11.5 5.9-3.9 0.7-7.7 0.6-11.6-0.2-0.8-0.2-1.6-0.5-2.4-0.8-1.2-0.5-2.3-1.2-3.3-2.1-0.5-0.4-0.9-0.4-1.2 0.2-0.2 0.5-0.5 0.9-0.7 1.4-0.1 0.3-0.3 0.4-0.6 0.4h-0.3-11.7c0-0.1-0.3-0.1-0.4-0.1zm14-26.3c0.1 3.2 0.3 7.2 0.5 11.3 0 1.2 0.2 2.3 0.2 3.5 0 0.3 0.2 0.5 0.4 0.7 0.9 0.6 1.9 1.2 2.9 1.5 3.3 1.1 6.6 1.2 9.9 0.4 2.8-0.7 5-2.3 6.7-4.7 0.7-1 1.3-2.1 1.8-3.2 2-4.9 2.4-9.9 1.5-15.1-0.5-2.9-1.7-5.5-3.5-7.8-1.9-2.4-4.3-3.9-7.3-4.3-2.9-0.4-5.7-0.1-8.4 0.9-1.7 0.6-3.2 1.6-4.4 3-0.3 0.3-0.4 0.6-0.4 1 0 3.9 0.1 7.9 0.1 12.8z"/>
<path d="m309.6 27.6c0-3.3-0.1-6.6-0.2-9.9s-0.3-6.6-0.5-9.9c5-2 10-4.1 15-6.2-1.1 25.9-1.1 51.7 0.4 77.6-4.4 0.1-8.7 0.3-13.1 0.4-0.3-1.3-0.4-2.6-0.4-4-0.4-0.1-0.8-0.1-1.2 0.2-2.9 2.4-6.3 3.9-10 4.5-2.7 0.5-5.3 0.6-8 0.3-5.3-0.5-9.9-2.7-13.4-6.8-3.7-4.1-5.8-9-6.6-14.4-0.4-2.9-0.4-5.9-0.1-8.8 0.4-3.8 1.3-7.5 3-11 1.5-3.2 3.5-6.2 6-8.8 3.1-3.1 6.9-5 11.3-5.8 3.8-0.7 7.7-0.7 11.5 0.1 2 0.4 3.8 1.1 5.5 2.2 0.1 0.4 0.4 0.4 0.8 0.3zm0.7 25.8c-0.1-1.1-0.1-2.1-0.1-3.2-0.2-4.1-0.4-8.2-0.6-12.4 0-0.3-0.1-0.6-0.4-0.7-0.5-0.3-1.1-0.6-1.6-0.9-3.4-1.6-6.9-1.9-10.5-1.2-3.4 0.7-5.9 2.5-7.7 5.4-0.6 0.9-1 1.9-1.5 2.9-1 2.4-1.5 4.8-1.8 7.4-0.2 2.7-0.2 5.4 0.5 8.1 0.6 2.8 1.8 5.4 3.6 7.7 1.8 2.2 4.1 3.5 6.9 3.9 1.2 0.2 2.4 0.1 3.6 0.1 1.7-0.1 3.3-0.3 4.9-0.9 1.6-0.5 3.1-1.4 4.3-2.6 0.2-0.2 0.4-0.5 0.4-0.9v-2.2-10.5z"/>
<path d="m219.2 79.7c-0.4-0.9-0.6-1.7-1-4.2-0.3-0.1-0.6-0.1-0.9 0.2-2.7 2.2-5.9 3.6-9.3 4.3-2.7 0.6-5.4 0.8-8.1 0.6-3.6-0.2-7-1.2-9.9-3.5s-4.6-5.3-4.9-9c-0.5-6 1.6-10.9 6.2-14.7 2.1-1.8 4.6-3 7.2-3.8 2.6-0.9 5.3-1.4 8-1.8 3.4-0.5 6.8-0.7 10.3-0.8h0.5c0-0.5 0.1-1 0.1-1.4 0-1.6-0.1-3.2-0.5-4.7-0.1-0.5-0.3-0.9-0.5-1.4-0.6-1.3-1.5-2.2-2.8-2.7-1.2-0.6-2.5-0.9-3.8-1-3.2-0.5-6.4-0.4-9.7-0.3-4.1 0.2-8.2 0.9-12.1 2-0.1 0-0.2 0.1-0.5 0.1l1.2-10.2c0.2-0.1 0.4-0.2 0.6-0.2 2.1-0.7 4.2-1.1 6.4-1.5 3.8-0.6 7.7-0.9 11.5-0.9 1.9 0 3.7 0 5.6 0.1 3.3 0.2 6.5 0.8 9.6 2.2 4.1 1.8 6.7 5 7.8 9.3 0.7 2.7 0.9 5.4 0.9 8.1-0.1 4.9-0.3 9.7-0.4 14.6-0.1 3.2 0 6.3 0.2 9.5 0.2 2.4 0.4 4.8 0.8 7.1l0.6 3c0 0.2 0.1 0.3 0.1 0.5-4.6 0.2-8.9 0.4-13.2 0.5zm-2.1-24.9h-0.6c-1.2 0-2.5 0.1-3.7 0.1-2.2 0.1-4.3 0.4-6.5 1-1.7 0.5-3.3 1.1-4.8 2.1-1.4 1-2.5 2.3-3 4-0.4 1.3-0.5 2.7-0.2 4.1 0.4 2 1.5 3.4 3.4 4.1 0.9 0.4 1.8 0.6 2.7 0.7 2.4 0.3 4.7 0.1 7-0.4 2-0.5 3.9-1.3 5.6-2.5 0.2-0.2 0.4-0.3 0.3-0.6-0.1-3.4-0.2-6.9-0.3-10.3 0.1-0.8 0.1-1.5 0.1-2.3z"/>
<path d="m270.6 39.5c-1.3-0.4-2.5-0.8-3.8-1.1-2.3-0.5-4.7-0.7-7-0.3-3.7 0.6-6.3 2.6-7.9 6.1-0.3 0.6-0.4 1.3-0.4 2v9.2c0 4.1 0 8.1 0.1 12.2 0 3.7 0.1 7.4 0.2 11.1v0.5c-0.4 0.1-13.8 0.2-14.7 0v-0.7c0.4-6.5 0.7-13 0.8-19.5 0.1-2.5 0.1-5 0.1-7.5 0-3.8-0.2-7.6-0.6-11.4-0.4-4.3-1.1-8.5-2.1-12.7 0-0.1-0.1-0.3-0.1-0.5 1.6-0.2 3.1-0.4 4.7-0.5 1.6-0.2 3.1-0.4 4.7-0.5 1.6-0.2 3.1-0.3 4.8-0.5 0.4 2.4 0.7 4.7 1 7.1h0.7c0.9-1.1 1.7-2.2 2.7-3.2 2.7-2.8 5.9-4.3 9.7-4.6 2.8-0.2 5.5 0.3 8.2 1.1 0.7 0.2 1.4 0.5 2.1 0.7-1.1 4.4-2.1 8.7-3.2 13z"/>
</g>
<g transform="translate(483 24)" fill="#C1C1C1">
<path d="m210.2 55.3h-0.5-13.5-0.6c0-0.5 0-0.9 0.1-1.3 0.1-1.7 0.3-3.4 0.4-5.2 0.2-4 0.4-7.9 0.5-11.9 0.1-3.6 0.1-7.2 0.1-10.8 0-2.5-0.2-4.9-0.8-7.3-0.2-0.7-0.4-1.3-0.6-2-0.8-2-2.2-3.2-4.1-4s-3.9-1-5.9-0.8c-3.1 0.2-5.8 1.4-8.3 3-0.2 0.1-0.3 0.3-0.3 0.5-0.1 3.3-0.2 6.5-0.2 9.8v10.9c0.1 5.1 0.1 10.2 0.2 15.4 0 1.1 0 2.1 0.1 3.2v0.4c-0.4 0.1-14.1 0.1-14.8 0v-0.6c0.1-1.7 0.2-3.4 0.4-5.1l0.3-4.2c0.2-4.2 0.3-8.4 0.5-12.5 0.1-2.7 0.1-5.4 0.1-8.2 0-2.3-0.2-4.5-0.8-6.7-0.2-0.7-0.5-1.5-0.8-2.2-0.6-1.4-1.7-2.3-3.1-2.8-1.1-0.5-2.3-0.7-3.5-0.9-1.9-0.2-3.7-0.2-5.6 0.2-2.5 0.5-4.7 1.7-6.5 3.4-0.2 0.2-0.3 0.4-0.3 0.7 0.1 5.6 0.1 11.1 0.2 16.7 0 7.2 0.1 14.3 0.1 21.5v0.6c-0.4 0.1-14.1 0.1-14.9 0v-0.3c0.2-3.4 0.4-6.9 0.5-10.3 0.2-3.9 0.3-7.8 0.4-11.8 0.1-2.9 0.1-5.8 0-8.7s-0.3-5.8-0.6-8.8c-0.4-4-1.1-8.1-2-12v-0.3c0.4-0.2 13.4-1.6 14.2-1.6l0.9 5.7c0.5 0.1 0.9 0.1 1.3-0.3 2.8-2.5 6-4.4 9.7-5.4 2.4-0.6 4.7-0.9 7.2-0.8 2.2 0.1 4.5 0.3 6.6 0.9 2.8 0.8 5.3 2.1 7.2 4.3 0.3 0.3 0.5 0.6 0.7 0.9 0.3 0.4 0.9 0.5 1.4 0.2 0.2-0.1 0.4-0.3 0.6-0.4 2.6-2 5.4-3.6 8.4-4.7 2.8-1 5.6-1.4 8.6-1.2 2.3 0.1 4.6 0.4 6.9 1 1.9 0.6 3.7 1.4 5.3 2.6 2 1.5 3.2 3.5 4 5.8 0.7 2.1 1.1 4.4 1.2 6.6 0 0.3 0.1 0.6 0.1 0.8v4c0 0.1-0.1 0.2-0.1 0.3 0 2.1-0.1 4.2-0.1 6.3 0 4 0.1 8 0.1 12v10.7c0 0.2 0.1 0.3 0.1 0.5-0.5 1.7-0.5 2.9-0.5 4.2z"/>
<path d="m93.9 57.6c-0.6-0.1-1.2-0.2-1.8-0.2-5.8-0.5-11-2.6-15.4-6.3-4.5-3.7-7.1-8.4-8.2-14.1-0.7-3.6-0.8-7.2-0.5-10.9 0.3-3.5 1.1-6.9 2.6-10.1 1.8-3.9 4.5-7.1 7.9-9.7 3.7-2.9 7.9-4.8 12.5-5.7 2.8-0.5 5.6-0.6 8.5-0.4 3.8 0.3 7.4 1.3 10.8 3.2 3.8 2.1 7.1 5 9.4 8.7 1.7 2.7 2.8 5.7 3.3 8.9 0.9 5.1 0.8 10.1-0.3 15.2-1.5 6.6-5.1 11.8-10.6 15.8-3.7 2.7-7.8 4.4-12.3 5.1-1.2 0.2-2.5 0.3-3.7 0.4-0.2 0-0.3 0.1-0.5 0.1h-1.7zm15.3-28.3c0-2.1-0.2-4.2-0.7-6.2-0.7-3.1-2-5.9-4-8.4-2.4-2.9-5.5-4.4-9.3-4.3-2.9 0.1-5.4 1.1-7.4 3.1-2.3 2.2-3.7 4.9-4.5 7.9-1.2 4.6-1.2 9.2 0 13.7 0.7 3 2.1 5.8 4.2 8.1 2.1 2.4 4.8 3.8 8.1 3.9s6.1-0.9 8.5-3.2c1.7-1.7 2.9-3.6 3.8-5.8 0.9-2.8 1.3-5.7 1.3-8.8z"/>
<path d="m65.2 2.3c-0.6 3.8-1.3 7.5-1.9 11.3-0.2-0.1-0.4-0.1-0.6-0.2-2.5-1-5.1-1.6-7.8-1.7-1.3-0.1-2.6-0.2-3.9-0.1-4.7 0.1-8.3 2.2-10.8 6.1-1.6 2.4-2.4 5.1-2.7 7.9s-0.1 5.6 0.7 8.3c1.1 3.7 3.2 6.8 6.3 9.1 2 1.4 4.2 2.2 6.6 2.6 2.8 0.5 5.5 0.4 8.3-0.1 2.4-0.4 4.8-1 7.2-1.7 0.2-0.1 0.4-0.1 0.6-0.2v0.4c-0.2 2.3-0.4 4.7-0.6 7-0.1 0.9-0.2 1.8-0.2 2.7 0 0.3-0.2 0.5-0.5 0.7-1.8 0.8-3.6 1.4-5.5 1.8-3.5 0.7-7.1 0.8-10.7 0.6-3.2-0.2-6.4-0.8-9.5-1.8-9.2-3.1-14.4-11-16.2-17.4-0.8-3-1.1-6.1-1-9.3 0.4-8 3.6-14.6 9.2-20.1 3.5-3.4 7.7-5.5 12.4-6.5 3.4-0.8 6.8-1 10.2-0.9 3.3 0.1 6.7 0.5 9.9 1.4 0.2 0 0.3 0 0.5 0.1z"/>
<path d="m9.6 55.9c-1.4 0-2.8-0.2-4-0.8-2.3-1.1-3.8-2.9-4.4-5.4-1.1-4.1-0.1-7.7 3.1-10.6 1.4-1.3 3.1-1.9 5-2.1 1.5-0.2 3.1-0.2 4.6 0.1 3 0.7 5 2.7 5.8 5.6 1.2 4.2 0.1 7.9-3.2 10.8-1.6 1.5-3.6 2.1-5.7 2.3-0.4 0-0.8 0.1-1.2 0.1z"/>
</g>
<g transform="translate(0 1)" fill="#39464E">
<path d="m0.1 77.5c0.1-0.5 0.2-1.1 0.2-1.6 0.1-3 0.2-6.1 0.3-9.1 0.1-4.5 0.2-9.1 0.2-13.6 0-6.7 0.1-13.4 0-20.1 0-6.5-0.2-13-0.3-19.6v-0.4c5.1-2.1 10.1-4.2 15.2-6.3v2l-0.3 9.9c-0.2 8.4-0.2 16.7-0.2 25.1 0 5.4-0.2 10.8-0.3 16.2-0.1 2.3-0.2 4.5-0.4 6.8v0.2c1.1 0.1 2.1 0 3.2 0h3.3 3.2c1.1 0 2.1 0 3.2-0.1 1.1 0 2.2-0.1 3.3-0.1s2.1-0.1 3.2-0.1 2.1-0.1 3.2-0.1 2.1-0.1 3.2-0.1 2.2-0.1 3.3-0.1 2.1-0.1 3.3-0.1c-0.1 4.1-0.3 8-0.4 12.1h-0.7-17.9-27.1-0.5c-0.2-0.3-0.2-0.6-0.2-0.9z"/>
<path d="m58.8 0.6c0.3 0.1 0.6 0.1 0.9 0.2 3.2 0.5 5.2 2.5 6.1 5.5 1.1 3.6-0.2 7.7-3.2 10.1-1 0.8-2.1 1.3-3.4 1.6-1.6 0.4-3.3 0.5-4.9 0.1-3.1-0.6-5-2.6-5.9-5.5-1-3.7-0.1-6.9 2.7-9.6 1.5-1.4 3.3-2 5.3-2.3 0.2 0 0.4-0.1 0.6-0.1h1.8z"/>
<path d="m129.9 54.3 0.3 1.5c1.4 6.7 6.6 11.6 13.3 12.7 2.1 0.3 4.2 0.4 6.3 0.3 1.5-0.1 3.1-0.2 4.6-0.4h0.6c-1.4 3.8-2.8 7.5-4.3 11.3-0.8 0-1.6 0.1-2.3 0.1-1.9 0-3.8 0.1-5.7 0-3.9-0.2-7.7-0.8-11.3-2.3-4.8-1.9-8.5-5.2-11.4-9.4-2.3-3.4-3.8-7.2-4.3-11.4-0.9-6.9 0.1-13.5 3.4-19.6 1.4-2.6 3.1-4.9 5.2-7 3.3-3.3 7.3-5.3 11.8-6.2 4.9-1 9.9-0.9 14.8 0.3 4.5 1.1 8.2 3.5 10.9 7.4 1.4 2 2.4 4.2 3.1 6.6 0.2 0.7 0.3 1.3 0.4 2 0 0.3 0 0.5-0.1 0.8-1.5 4.1-3.1 8.2-4.6 12.3-0.1 0.3-0.3 0.4-0.6 0.4-3.4 0-6.8 0.1-10.2 0.2l-15.6 0.3h-3.7c-0.2 0.1-0.4 0.1-0.6 0.1zm23-8.5v-1.5c-0.1-1.7-0.4-3.5-1-5.1-1.1-3-3.2-4.9-6.3-5.7-1.7-0.4-3.4-0.5-5.2-0.3-1.3 0.1-2.5 0.5-3.7 1-2.1 1-3.6 2.6-4.7 4.7-1.1 1.9-1.7 4-2.1 6.1-0.1 0.4-0.1 0.8-0.2 1.3 7.8-0.2 15.5-0.3 23.2-0.5z"/>
<path d="m93 64.6h0.6c0-0.4 0.1-0.7 0.2-1.1 0.4-2.5 1.1-4.8 1.9-7.2 1.5-4.9 3.1-9.7 4.6-14.5 1.2-3.7 2.3-7.5 3.2-11.3 0.3-1.5 0.7-3.1 0.7-4.6 0-0.1 0-0.1 0.1-0.2h14.3c0.1 0.4 0 0.8-0.1 1.1-0.4 1.9-1.1 3.7-1.7 5.5-2.2 5.9-4.6 11.7-7.1 17.5-2.8 6.5-5.6 13-8.1 19.6-0.9 2.4-1.8 4.8-2.5 7.3-0.1 0.6-0.2 1.1-0.4 1.7h-15l-0.3-1.8c-0.6-2.7-1.5-5.4-2.4-8-2.2-6.5-4.6-12.9-7-19.3-2.3-6.1-4.6-12.3-6.6-18.5-0.5-1.5-0.9-3.1-1.3-4.6 0-0.1 0-0.3-0.1-0.5h16.1c0.2 1.1 0.5 2.2 0.7 3.3 1 4.1 2.3 8.1 3.6 12.1 1.6 5.2 3.3 10.4 4.9 15.6 0.6 2.1 1.1 4.3 1.6 6.4-0.1 0.5 0 1 0.1 1.5z"/>
<path d="m63.6 78.3h-14.9c0-0.7 0.1-1.4 0.1-2l0.3-5.1c0.3-6.9 0.4-13.7 0.4-20.6 0-3.7-0.1-7.5-0.4-11.2-0.3-4.4-0.7-8.7-1.5-13v-0.2c5.3-0.5 10.6-1.1 15.9-1.6-0.9 17.9-1 35.8 0.1 53.7z"/>
</g>
<path d="m400.2 87.5c-0.8 0.3-1.6 0.5-2.4 0.8-0.6 0.2-1.2 0.3-1.8 0.3-12.4 0.1-24.7 0.2-37.1 0.4-8.1 0.1-16.2 0.2-24.3 0.3-9.3 0.1-18.5 0.3-27.8 0.4-6.9 0.1-13.8 0.2-20.7 0.4-7.1 0.1-14.2 0.3-21.4 0.4-5.6 0.1-11.1 0.2-16.7 0.4-6.6 0.2-13.2 0.3-19.8 0.5-5.3 0.1-10.6 0.3-16 0.4-6.2 0.2-12.4 0.4-18.6 0.5-5.1 0.2-10.2 0.3-15.3 0.5-5.3 0.2-10.6 0.4-15.9 0.5-4.4 0.2-8.8 0.3-13.2 0.5-5.1 0.2-10.1 0.4-15.2 0.6l-14.1 0.6c-4.8 0.2-9.6 0.4-14.4 0.7-4.1 0.2-8.2 0.4-12.2 0.6-4.5 0.2-9 0.5-13.5 0.7-4.2 0.2-8.3 0.5-12.5 0.7s-8.3 0.5-12.5 0.8c-4.1 0.3-8.2 0.5-12.3 0.8-4.5 0.3-9 0.6-13.5 1-2.6 0.2-5.3 0.4-7.9 0.6-0.2 0-0.4 0-0.6-0.2-6.3-4.4-12.5-8.8-18.8-13.1-0.1-0.1-0.2-0.1-0.3-0.2 133.1 0.1 265.9 0.1 398.8 0.1z" fill="#E48B00"/>
</g>
</svg>
